<?xml version="1.0" ?><!DOCTYPE svg  PUBLIC '-//W3C//DTD SVG 1.1//EN'  'http://www.w3.org/Graphics/SVG/1.1/DTD/svg11.dtd'><svg enable-background="new 0 0 512 512" height="512px" id="Layer_1" version="1.1" viewBox="0 0 512 512" width="512px" xml:space="preserve" xmlns="http://www.w3.org/2000/svg" xmlns:xlink="http://www.w3.org/1999/xlink"><g><path d="M16,399.109C6.125,389.016,0,375.234,0,360V104c0-30.938,25.07-56,56-56h336   c15.242,0,29.016,6.125,39.117,16H72c-30.93,0-56,25.063-56,56V399.109z M48,152c0-30.938,25.07-56,56-56h359.117   C453.016,86.125,439.242,80,424,80H88c-30.93,0-56,25.063-56,56v256c0,15.234,6.125,29.016,16,39.109V152z M512,168v256   c0,30.922-25.07,56-56,56H120c-30.93,0-56-25.078-56-56V168c0-30.938,25.07-56,56-56h336C486.93,112,512,137.063,512,168z    M432,167.328c0,4.797,3.883,8.672,8.672,8.672h14.656c4.789,0,8.672-3.875,8.672-8.672v-14.656c0-4.797-3.883-8.672-8.672-8.672   h-14.656c-4.789,0-8.672,3.875-8.672,8.672V167.328z M368,167.328c0,4.797,3.883,8.672,8.672,8.672h14.656   c4.789,0,8.672-3.875,8.672-8.672v-14.656c0-4.797-3.883-8.672-8.672-8.672h-14.656c-4.789,0-8.672,3.875-8.672,8.672V167.328z    M304,167.328c0,4.797,3.883,8.672,8.672,8.672h14.656c4.789,0,8.672-3.875,8.672-8.672v-14.656c0-4.797-3.883-8.672-8.672-8.672   h-14.656c-4.789,0-8.672,3.875-8.672,8.672V167.328z M480,208H96v216c0,13.234,10.766,24,24,24h336c13.234,0,24-10.766,24-24V208z" fill="#4D4D4D"/></g></svg>